HIERARCHY
ROOT hip
{
	OFFSET 0.000000 0.000000 0.000000
	CHANNELS 6 Xposition Yposition Zposition Xrotation Zrotation Yrotation 
	JOINT abdomen
	{
		OFFSET 0.000000 3.422050 0.000000
		CHANNELS 3 Xrotation Zrotation Yrotation 
		JOINT chest
		{
			OFFSET 0.000000 8.486693 -0.684411
			CHANNELS 3 Xrotation Zrotation Yrotation 
			JOINT neck
			{
				OFFSET 0.000000 10.266162 -0.273764
				CHANNELS 3 Xrotation Zrotation Yrotation 
				JOINT head
				{
					OFFSET 0.000000 3.148285 0.000000
					CHANNELS 3 Xrotation Zrotation Yrotation 
					End Site
					{
						OFFSET 0.000000 3.148289 0.000000
					}
				}
			}
			JOINT lCollar
			{
				OFFSET 3.422053 6.707223 -0.821293
				CHANNELS 3 Yrotation Zrotation Xrotation 
				JOINT lShldr
				{
					OFFSET 3.285171 0.000000 0.000000
					CHANNELS 3 Zrotation Yrotation Xrotation 
					JOINT lForeArm
					{
						OFFSET 10.129278 0.000000 0.000000
						CHANNELS 3 Yrotation Zrotation Xrotation 
						JOINT lHand
						{
							OFFSET 8.486692 0.000000 0.000000
							CHANNELS 3 Zrotation Yrotation Xrotation 
							End Site
							{
								OFFSET 4.106464 0.000000 0.000000
							}
						}
					}
				}
			}
			JOINT rCollar
			{
				OFFSET -3.558935 6.707223 -0.821293
				CHANNELS 3 Yrotation Zrotation Xrotation 
				JOINT rShldr
				{
					OFFSET -3.148289 0.000000 0.000000
					CHANNELS 3 Zrotation Yrotation Xrotation 
					JOINT rForeArm
					{
						OFFSET -10.266159 0.000000 0.000000
						CHANNELS 3 Yrotation Zrotation Xrotation 
						JOINT rHand
						{
							OFFSET -8.349810 0.000000 0.000000
							CHANNELS 3 Zrotation Yrotation Xrotation 
							End Site
							{
								OFFSET -4.106464 0.000000 0.000000
							}
						}
					}
				}
			}
		}
	}
	JOINT lThigh
	{
		OFFSET 5.338403 -1.642589 1.368821
		CHANNELS 3 Xrotation Zrotation Yrotation 
		JOINT lShin
		{
			OFFSET -2.053232 -20.121670 0.000000
			CHANNELS 3 Xrotation Zrotation Yrotation 
			JOINT lFoot
			{
				OFFSET 0.000000 -19.300380 -1.231939
				CHANNELS 3 Xrotation Yrotation Zrotation 
				End Site
				{
					OFFSET 0.000000 -2.463878 4.653993
				}
			}
		}
	}
	JOINT rThigh
	{
		OFFSET -5.338403 -1.642589 1.368821
		CHANNELS 3 Xrotation Zrotation Yrotation 
		JOINT rShin
		{
			OFFSET 2.053232 -20.121670 0.000000
			CHANNELS 3 Xrotation Zrotation Yrotation 
			JOINT rFoot
			{
				OFFSET 0.000000 -19.300380 -1.231939
				CHANNELS 3 Xrotation Yrotation Zrotation 
				End Site
				{
					OFFSET 0.000000 -2.463878 4.653993
				}
			}
		}
	}
}
MOTION
Frames: 11
Frame Time: 0.016633
0.000000 43.528500 0.000000 0.000000 0.000000 0.000000 0.000000 0.000000 0.000000 0.000000 0.000000 0.000000 0.000000 0.000000 0.000000 0.000000 0.000000 0.000000 0.000000 0.000000 0.000000 0.000000 0.000000 0.000000 0.000000 0.000000 0.000000 0.000000 0.000000 0.000000 0.000000 0.000000 0.000000 0.000000 0.000000 0.000000 0.000000 0.000000 0.000000 0.000000 0.000000 0.000000 0.000000 0.000000 0.000000 0.000000 0.000000 0.000000 0.000000 0.000000 0.000000 0.000000 0.000000 0.000000 0.000000 0.000000 0.000000 0.000000 0.000000 0.000000 
-10.005451 13.998745 21.996380 0.000000 0.000000 -130.000488 23.514280 -0.029167 -2.151215 29.308704 -8.610806 -16.880989 0.000000 0.000000 0.000000 0.000000 0.000000 0.000000 -60.546486 -20.938725 -27.301027 -7.356896 -24.847324 -0.251986 -18.758553 9.376501 -1.863953 3.686816 -28.363083 -5.319499 40.578835 48.334461 -20.312298 28.997278 7.998279 20.995926 66.997200 4.998860 4.999247 20.998209 -20.003141 -2.002118 -64.122414 11.762681 -15.074506 156.052750 2.084693 -19.495825 36.828609 48.545387 -23.507446 -139.496460 -57.307980 51.938000 118.858055 8.671794 13.284280 -6.420040 -34.018269 1.497440 
-10.005451 13.998745 21.996380 0.000000 0.000000 -130.000488 23.514282 -0.029167 -2.151215 29.308704 -8.610806 -16.880989 0.000000 0.000000 0.000000 -0.723538 0.080823 -0.246886 -60.546486 -20.938726 -27.301029 -7.356896 -24.847324 -0.251986 -19.381018 9.191874 -1.803698 3.686816 -28.363083 -5.319499 40.578838 48.334461 -20.312298 28.997351 7.720889 20.995991 67.358528 4.860771 4.983938 20.687138 -19.809565 -1.982875 -64.122414 11.762681 -15.074506 156.052750 2.084693 -19.495825 36.828609 48.545387 -23.507446 -139.496460 -57.307980 51.938000 118.858055 8.671794 13.284280 -6.420040 -34.018269 1.497440 
-10.005451 13.998745 21.996380 0.000000 0.000000 -130.000488 23.514280 -0.029167 -2.151215 29.308708 -8.610806 -16.880989 0.000000 0.000000 0.000000 -1.449032 0.158692 -0.495327 -60.546486 -20.938725 -27.301027 -7.356896 -24.847324 -0.251986 -20.003372 9.006487 -1.745470 3.686816 -28.363083 -5.319500 40.578835 48.334461 -20.312298 28.997416 7.443442 20.996046 67.719902 4.722536 4.969502 20.376394 -19.615818 -1.964764 -64.122414 11.762681 -15.074506 156.052750 2.084693 -19.495825 36.828613 48.545387 -23.507450 -139.496460 -57.307980 51.938004 118.858055 8.671794 13.284280 -6.420040 -34.018269 1.497440 
-10.005451 13.998745 21.996380 0.000000 0.000000 -130.000488 23.514282 -0.029167 -2.151215 29.308704 -8.610806 -16.880989 0.000000 0.000000 0.000000 -2.176412 0.233563 -0.745269 -60.546486 -20.938726 -27.301029 -7.356896 -24.847324 -0.251986 -20.625599 8.820374 -1.689280 3.686817 -28.363085 -5.319500 40.578838 48.334461 -20.312298 28.997490 7.165945 20.996109 68.081299 4.584161 4.955938 20.066004 -19.421934 -1.947785 -64.122414 11.762680 -15.074506 156.052750 2.084693 -19.495825 36.828609 48.545387 -23.507446 -139.496460 -57.307980 51.938000 118.858055 8.671795 13.284280 -6.420040 -34.018276 1.497440 
-10.005451 13.998745 21.996380 0.000000 0.000000 -130.000488 23.514280 -0.029167 -2.151215 29.308708 -8.610806 -16.880991 0.000000 0.000000 0.000000 -2.905607 0.305399 -0.996658 -60.546486 -20.938725 -27.301027 -7.356897 -24.847326 -0.251986 -21.247656 8.633569 -1.635136 3.686816 -28.363085 -5.319499 40.578838 48.334465 -20.312300 28.997551 6.888398 20.996166 68.442719 4.445657 4.943250 19.755930 -19.227892 -1.931932 -64.122414 11.762683 -15.074508 156.052750 2.084693 -19.495827 36.828617 48.545387 -23.507448 -139.496460 -57.307987 51.938000 118.858055 8.671795 13.284282 -6.420040 -34.018272 1.497440 
-10.005451 13.998745 21.996380 0.000000 0.000000 -130.000488 23.514282 -0.029167 -2.151215 29.308704 -8.610806 -16.880989 0.000000 0.000000 0.000000 -3.636546 0.374160 -1.249438 -60.546494 -20.938728 -27.301031 -7.356896 -24.847324 -0.251986 -21.869524 8.446104 -1.583049 3.686816 -28.363085 -5.319499 40.578838 48.334461 -20.312298 28.997629 6.610808 20.996233 68.804161 4.307033 4.931436 19.446209 -19.033730 -1.917208 -64.122414 11.762682 -15.074508 156.052750 2.084693 -19.495827 36.828609 48.545387 -23.507446 -139.496445 -57.307980 51.938000 118.858055 8.671794 13.284280 -6.420041 -34.018272 1.497440 
-10.005451 13.998745 21.996380 0.000000 0.000000 -130.000488 23.514280 -0.029167 -2.151215 29.308704 -8.610805 -16.880987 0.000000 0.000000 0.000000 -4.369155 0.439810 -1.503551 -60.546486 -20.938719 -27.301025 -7.356896 -24.847324 -0.251986 -22.491177 8.258016 -1.533026 3.686816 -28.363081 -5.319499 40.578827 48.334454 -20.312294 28.997688 6.333171 20.996283 69.165596 4.168294 4.920497 19.136808 -18.839437 -1.903604 -64.122398 11.762679 -15.074504 156.052750 2.084693 -19.495821 36.828606 48.545380 -23.507444 -139.496460 -57.307972 51.938000 118.858055 8.671794 13.284279 -6.420039 -34.018265 1.497439 
-10.005451 13.998745 21.996380 0.000000 0.000000 -130.000488 23.514280 -0.029167 -2.151215 29.308704 -8.610806 -16.880989 0.000000 0.000000 0.000000 -5.103359 0.502313 -1.758941 -60.546486 -20.938725 -27.301027 -7.356896 -24.847324 -0.251986 -23.112593 8.069335 -1.485073 3.686816 -28.363081 -5.319499 40.578827 48.334457 -20.312296 28.997759 6.055498 20.996346 69.527054 4.029451 4.910436 18.827745 -18.645035 -1.891122 -64.122414 11.762679 -15.074504 156.052750 2.084693 -19.495825 36.828609 48.545387 -23.507446 -139.496445 -57.307972 51.937996 118.858055 8.671794 13.284279 -6.420039 -34.018265 1.497440 
-10.005451 13.998745 21.996380 0.000000 0.000000 -130.000488 23.514280 -0.029167 -2.151215 29.308704 -8.610805 -16.880987 0.000000 0.000000 0.000000 -5.839081 0.561635 -2.015545 -60.546486 -20.938723 -27.301027 -7.356896 -24.847324 -0.251986 -23.733738 7.880099 -1.439199 3.686816 -28.363081 -5.319499 40.578827 48.334454 -20.312294 28.997835 5.777790 20.996407 69.888519 3.890514 4.901252 18.519001 -18.450523 -1.879756 -64.122414 11.762681 -15.074506 156.052750 2.084693 -19.495825 36.828606 48.545376 -23.507444 -139.496460 -57.307980 51.938000 118.858055 8.671794 13.284280 -6.420039 -34.018265 1.497440 
-10.005451 13.998745 21.996380 0.000000 0.000000 -130.000488 23.514278 -0.029167 -2.151215 29.308704 -8.610805 -16.880989 0.000000 0.000000 0.000000 -6.576248 0.617744 -2.273305 -60.546486 -20.938725 -27.301027 -7.356896 -24.847324 -0.251986 -24.354580 7.690335 -1.395409 3.686816 -28.363083 -5.319499 40.578831 48.334461 -20.312296 28.997896 5.500047 20.996460 70.249985 3.751490 4.892946 18.210596 -18.255924 -1.869506 -64.122414 11.762681 -15.074506 156.052750 2.084693 -19.495821 36.828609 48.545387 -23.507446 -139.496460 -57.307980 51.938000 118.858055 8.671794 13.284280 -6.420040 -34.018269 1.497440 
